PathFileType	4	(X/Y/Z)	Patient4_TMGait_0pt3_01_left_01.trc.trc
DataRate	CameraRate	NumFrames	NumMarkers	Units	OrigDataRate	OrigDataStartFrame	OrigNumFrames
53.231939163498	53.231939163498	6	33	mm	53.231939163498	36	       141
Frame#	Time	Sacral			L.Shoulder			Chest			R.Shoulder			Neck			R.ASIS			L.ASIS			R.Thigh.Superior			R.Thigh.Lateral			R.Thigh.Inferior			R.Patella			L.Thigh.Superior			L.Thigh.Lateral			L.Thigh.Inferior			L.Patella			L.Shank.Superior			L.Shank.Lateral			L.Shank.Inferior			R.Shank.Superior			R.Shank.Lateral			R.Shank.Inferior			R.Heel			R.Midfoot.Superior			R.Midfoot.Lateral			R.Toe			L.Heel			L.Midfoot.Lateral			L.Midfoot.Superior			L.Toe			L.Elbow			L.Wrist			R.Elbow			R.Wrist			
		X1	Y1	Z1	X2	Y2	Z2	X3	Y3	Z3	X4	Y4	Z4	X5	Y5	Z5	X6	Y6	Z6	X7	Y7	Z7	X8	Y8	Z8	X9	Y9	Z9	X10	Y10	Z10	X11	Y11	Z11	X12	Y12	Z12	X13	Y13	Z13	X14	Y14	Z14	X15	Y15	Z15	X16	Y16	Z16	X17	Y17	Z17	X18	Y18	Z18	X19	Y19	Z19	X20	Y20	Z20	X21	Y21	Z21	X22	Y22	Z22	X23	Y23	Z23	X24	Y24	Z24	X25	Y25	Z25	X26	Y26	Z26	X27	Y27	Z27	X28	Y28	Z28	X29	Y29	Z29	X30	Y30	Z30	X31	Y31	Z31	X32	Y32	Z32	X33	Y33	Z33	

36	1.757500000000	804.232099142881	999.542771800435	552.212647681121	932.974316487535	1418.025292015146	332.339580262775	1067.543071054962	1360.366686898173	472.595352096794	1018.525067319815	1442.537438278242	655.420833118294	947.381179795266	1487.367776794099	486.492872349709	1046.587965977582	932.629211521966	636.787208176778	996.118785154368	955.453800522446	366.516390351052	1036.964104124402	717.430065700463	609.921024016620	934.781709467604	624.292783071302	678.407112498662	986.837766022284	557.708591046678	594.664016551899	964.435394283999	471.040879710165	601.122786122517	1072.431726648068	761.762809979714	395.067050889071	1004.031723263824	635.597914249392	328.194120718029	1104.184927087337	572.089177947697	385.348034240200	1114.890295503179	502.461439048204	387.709070711249	1096.415866176459	428.669771871989	377.426801145015	1017.857680959972	306.095143592175	326.935917161045	1090.119462165816	199.351516004285	387.138775652978	919.130294170671	390.839441206594	612.304419845116	831.796144285339	302.635903674266	678.357508262525	852.538679385453	200.935107613268	616.124864126068	695.309209648196	48.977216327345	588.263151927024	866.326738981343	97.274643197487	628.955705509707	775.466159144547	39.958129808913	665.582886193002	983.388307615496	41.573631845266	663.722380324477	980.923850319581	37.891054115855	429.663603432685	1050.484852579165	35.710489886866	344.936529782896	1134.316910582716	98.350489918492	367.356081178979	1260.715346090513	49.473238844709	331.400964396584	830.180212377531	1070.881898956622	258.355203549630	873.321346191056	813.463801812797	255.828534027912	1161.107616466568	1136.482729321869	782.726843994672	1392.103857767238	1218.831290667846	724.617711011225	
37	1.776285714286	805.632189748292	999.351576926362	547.499356835620	933.365889798623	1417.935693863871	328.142493975390	1067.989441602969	1360.774475712578	468.567169684083	1018.628665063805	1443.110211945211	651.242329178094	947.556292622630	1487.595162048068	482.256141941139	1047.878974197399	932.825701473913	632.537117982635	998.101003518756	956.168720724482	362.255082511234	1038.677535830866	717.522629627949	606.125412798864	936.725789291014	624.296818106400	674.730712906609	989.366700728866	557.368130528312	591.426498453408	966.919290086653	469.627526512689	598.537630306192	1074.891065269591	762.245616506583	391.517063368202	1006.619805631270	635.743680901978	325.321757470188	1106.312144156551	572.019455262090	383.031934760674	1116.758633885721	501.940879353688	386.012595399908	1097.291530619331	427.896116394011	376.104139579645	1017.380416140100	306.280358277398	325.582754945986	1087.096145059240	198.724091980262	386.993414514451	919.808189600014	390.212963327568	610.055608718039	830.684628566551	304.083660848513	676.631371209857	849.792720019327	201.513496864056	615.291893351913	690.172404830670	51.597851524191	588.377198729434	861.728647493716	97.733676083257	628.964463048875	770.282264376560	41.384767683979	665.552446059195	978.095466018130	40.826028422900	663.811784064903	975.487810682050	37.909954371364	429.578565291743	1045.082984666237	35.850037943428	344.889331038526	1128.993084152703	98.183426491167	367.622916762523	1255.327174629863	49.340411681158	331.560693724424	837.632753711839	1068.388168254731	253.075904026775	889.528297088677	812.470073895296	249.082343752513	1160.385694929355	1135.715569415866	777.412429449605	1393.665868425649	1212.584589415310	719.959023374253	
38	1.795071428571	806.957471478758	999.268181838227	542.600258032358	933.955269610958	1418.110536150956	323.936140831764	1068.423990218634	1361.350608412037	464.682790336243	1018.476061204871	1443.721825383753	647.190259991493	947.689066084103	1487.981894737030	478.053046810523	1049.053103506900	933.209874653275	628.283588220276	1000.120893882515	956.909383856110	357.934860691400	1040.457875226512	717.855869732642	602.455180578637	938.814396948542	624.486080965865	671.188928508104	992.213087166004	557.211352258828	588.422827303977	969.873830850703	468.303978590418	596.377684062687	1077.005051685014	762.508084820412	387.785197434347	1008.549786644521	635.754099154212	322.412339926627	1107.767242327134	571.748366272703	380.581832132350	1117.988316605441	501.324584383165	384.183224825190	1097.537844250689	427.089202930161	374.686378810215	1016.335346601009	306.352840030056	324.322435291354	1083.731781812817	198.115341216428	386.755297553883	920.810056535059	389.768429623572	608.116801453787	829.786053065028	305.850907333204	675.084772816220	847.298038678919	202.406840493613	614.680248480752	685.163452812912	54.822779363343	588.586018851617	857.372374169045	98.295308220832	629.105142180380	765.192824152309	43.111434072168	665.591429866210	972.855090399120	40.087749636278	663.890708363456	970.016894708623	37.914557785494	429.525269060042	1039.628969107627	35.968899199209	344.863706042781	1123.593949942691	98.039805425329	367.856183315201	1249.884651959121	49.219971310761	331.670914861705	845.842120190524	1066.253932564889	247.580481933730	906.266770247162	812.103650904171	242.262155826429	1158.769871867285	1134.568486714637	772.078831578635	1394.799599480551	1204.507319596213	715.778528403333	
39	1.813857142857	808.196047389833	999.303308213471	537.559352624062	934.746829287119	1418.533721120544	319.707173311984	1068.853469759578	1362.081894173811	460.929436100887	1018.083701646095	1444.380184579972	643.241863381136	947.787980482470	1488.520595427472	473.857970966723	1050.095074403809	933.770183962045	624.057791445036	1002.143793520677	957.672051006808	353.586799423804	1042.354502191885	718.423525558055	598.916945329939	941.155226041114	624.819064446183	667.799805258911	995.502974864229	557.225788029988	585.659390154456	973.424423844843	467.061174912361	594.664350164030	1078.742365087883	762.564056233967	383.897486281474	1009.780345356392	635.665090460975	319.477756823374	1108.496929046972	571.302326279130	378.006800805215	1118.477589497584	500.633029111968	382.230174412313	1097.095282966321	426.267967960191	373.169158172549	1014.691651138508	306.314662589856	323.115716235476	1080.020666040838	197.525339970145	386.408737729313	922.271099231830	389.480965861982	606.508570106347	829.218174577584	307.940662369449	673.719060008061	845.139430914336	203.614923693947	614.295099367003	680.326640425606	58.703967752292	588.891647325343	853.299457867548	98.962025502239	629.380479769018	760.221847106321	45.173368837374	665.705322426482	967.663518261491	39.393355172777	663.949283497632	964.504222159189	37.914533843202	429.493705853001	1034.118656233217	36.054427154306	344.847877448579	1118.135983728775	97.894932652263	368.038025332622	1244.396571871090	49.048570952603	331.728690830199	854.757798266365	1064.525669225457	241.850437337496	923.459566316391	812.398926831285	235.420379856023	1156.193571266340	1133.072599200936	766.785158649620	1395.298860174855	1194.549276445142	712.104135445862	
40	1.832642857143	809.333458970451	999.452794603091	532.417924634319	935.734862005256	1419.170077136284	315.449366610776	1069.281786214424	1362.941141968279	457.295209238392	1017.474676223882	1445.084578680768	639.375902149780	947.864405325231	1489.191813003197	469.649620016689	1050.986251024048	934.479307363939	619.888910050843	1004.138768430863	958.454418968720	349.242996794595	1044.426393922439	719.208341466710	595.512797307292	943.859278166691	625.243705147068	664.571603267573	999.369156767811	557.389778516656	583.136579080131	977.699169120080	465.884304636075	593.395323488479	1080.093722182804	762.436461081688	379.893364016689	1010.321739326653	635.518154055989	316.525507210070	1108.494350720457	570.714164785835	375.330570164280	1118.182593498567	499.890866993448	380.174571371923	1095.951712643994	425.453962196094	371.557713836223	1012.462743511970	306.176775898453	321.923813232829	1075.982036904237	196.958320339976	385.952168929753	924.334976192073	389.319527049392	605.231235624679	829.113661365847	310.349161954162	672.519530085508	843.411120804802	205.133632665706	614.125310037142	675.725380758906	63.298774274531	589.283741256067	849.555183294870	99.738096655847	629.780177569994	755.404607815984	47.621876824568	665.891116861724	962.516709330315	38.766958441712	663.979932594988	958.950599087353	37.916546176572	429.473671220019	1028.556933432192	36.102563500615	344.832201165585	1112.635557565324	97.738171604527	368.159302587984	1238.874357072438	48.799044688345	331.739256420471	864.292903527680	1063.229580713394	235.872469740871	941.045861095961	813.378427200128	228.601358581728	1152.619303779936	1131.274032667275	761.609743050357	1394.942142794507	1182.681852336710	708.958106873070	
41	1.851428571429	810.353297254313	999.696602093628	527.214168484828	936.903388717912	1419.967767610471	311.165170322288	1069.707814235157	1363.888996269859	453.772090113391	1016.673309247643	1445.824095794857	635.576407107375	947.929886238640	1489.964591264280	465.415342515042	1051.705856674411	935.296806735221	615.804183645633	1006.079339109438	959.251868691516	344.936405759722	1046.735612237198	720.186110201165	592.245627046415	947.028677447687	625.706118642165	661.506226442499	1003.935457172074	557.679750675157	580.851354116593	982.813604194084	464.760480769631	592.543155587956	1081.069251004239	762.152019802301	375.819914561572	1010.226125379563	635.351184687967	313.561021983604	1107.795450833218	570.017698575358	372.586377508833	1117.116379674233	499.121868744183	378.044783654723	1094.139428288104	424.666432820579	369.865253930821	1009.698497874106	305.955030427427	320.716116749567	1071.655306872329	196.420197730868	385.396956476161	927.139807859218	389.254252881069	604.263444198850	829.611232120860	313.068378958194	671.457443333683	842.210839574822	206.959930555500	614.142737232520	671.444881348377	68.674574504881	589.737097580605	846.185961965790	100.633778763301	630.279800973308	750.789109200466	50.529490756029	666.135595314663	957.409587665702	38.216930670312	663.979350011947	953.362032189472	37.924245176616	429.456443755703	1022.953990110693	36.115527567264	344.809983013890	1107.107205441790	97.568417661222	368.219151450169	1233.329391487386	48.470627348075	331.712585814147	874.329389694391	1062.368296236748	229.644900621692	958.974087016023	815.054059004534	221.840890611956	1148.042913762020	1129.229706607865	756.641297530617	1393.498375187231	1168.905872956057	706.358504059371	
